<mxfile host="app.diagrams.net" modified="2022-05-11T13:16:23.505Z" agent="5.0 (Windows NT 10.0; Win64; x64) AppleWebKit/537.36 (KHTML, like Gecko) Chrome/101.0.4951.64 Safari/537.36" etag="2TNk9l8IsOXGcZV7p-tk" version="18.0.2" type="github">
  <diagram id="_skOQxB-uwyqXBMiftf8" name="Page-1">
    <mxGraphModel dx="1422" dy="-464" grid="1" gridSize="10" guides="1" tooltips="1" connect="1" arrows="1" fold="1" page="1" pageScale="1" pageWidth="827" pageHeight="1169" math="0" shadow="0">
      <root>
        <mxCell id="0" />
        <mxCell id="1" parent="0" />
        <mxCell id="WJGu8_yT9mj12SgUYSVn-1" value="" style="ellipse;html=1;shape=startState;fillColor=#000000;strokeColor=#ff0000;" vertex="1" parent="1">
          <mxGeometry x="400" y="1210" width="30" height="30" as="geometry" />
        </mxCell>
        <mxCell id="WJGu8_yT9mj12SgUYSVn-2" value="" style="edgeStyle=orthogonalEdgeStyle;html=1;verticalAlign=bottom;endArrow=open;endSize=8;strokeColor=#ff0000;rounded=0;" edge="1" source="WJGu8_yT9mj12SgUYSVn-1" parent="1">
          <mxGeometry relative="1" as="geometry">
            <mxPoint x="415" y="1300" as="targetPoint" />
          </mxGeometry>
        </mxCell>
        <mxCell id="WJGu8_yT9mj12SgUYSVn-8" value="Wyświetlenie formularza" style="rounded=1;whiteSpace=wrap;html=1;arcSize=40;fontColor=#000000;fillColor=#ffffc0;strokeColor=#ff0000;" vertex="1" parent="1">
          <mxGeometry x="350" y="1280" width="120" height="40" as="geometry" />
        </mxCell>
        <mxCell id="WJGu8_yT9mj12SgUYSVn-9" value="" style="edgeStyle=orthogonalEdgeStyle;html=1;verticalAlign=bottom;endArrow=open;endSize=8;strokeColor=#ff0000;rounded=0;" edge="1" source="WJGu8_yT9mj12SgUYSVn-8" parent="1">
          <mxGeometry relative="1" as="geometry">
            <mxPoint x="410" y="1380" as="targetPoint" />
          </mxGeometry>
        </mxCell>
        <mxCell id="WJGu8_yT9mj12SgUYSVn-11" value="Akceptracja rejestracji" style="rhombus;whiteSpace=wrap;html=1;fillColor=#ffffc0;strokeColor=#ff0000;" vertex="1" parent="1">
          <mxGeometry x="335" y="1380" width="150" height="100" as="geometry" />
        </mxCell>
        <mxCell id="WJGu8_yT9mj12SgUYSVn-12" value="no" style="edgeStyle=orthogonalEdgeStyle;html=1;align=left;verticalAlign=bottom;endArrow=open;endSize=8;strokeColor=#ff0000;rounded=0;exitX=1;exitY=0.5;exitDx=0;exitDy=0;" edge="1" source="WJGu8_yT9mj12SgUYSVn-11" parent="1">
          <mxGeometry x="-1" relative="1" as="geometry">
            <mxPoint x="600" y="1430" as="targetPoint" />
            <Array as="points">
              <mxPoint x="560" y="1430" />
            </Array>
          </mxGeometry>
        </mxCell>
        <mxCell id="WJGu8_yT9mj12SgUYSVn-13" value="yes" style="edgeStyle=orthogonalEdgeStyle;html=1;align=left;verticalAlign=top;endArrow=open;endSize=8;strokeColor=#ff0000;rounded=0;exitX=0.5;exitY=1;exitDx=0;exitDy=0;" edge="1" source="WJGu8_yT9mj12SgUYSVn-11" parent="1">
          <mxGeometry x="-1" relative="1" as="geometry">
            <mxPoint x="410" y="1550" as="targetPoint" />
            <mxPoint x="410" y="1690" as="sourcePoint" />
            <Array as="points">
              <mxPoint x="410" y="1540" />
              <mxPoint x="410" y="1540" />
            </Array>
            <mxPoint as="offset" />
          </mxGeometry>
        </mxCell>
        <mxCell id="WJGu8_yT9mj12SgUYSVn-14" value="Wyświetlenie formularza z prośbą o podanie przyczyny odrzucenia wniosku" style="rounded=1;whiteSpace=wrap;html=1;arcSize=40;fontColor=#000000;fillColor=#ffffc0;strokeColor=#ff0000;" vertex="1" parent="1">
          <mxGeometry x="580" y="1400" width="160" height="70" as="geometry" />
        </mxCell>
        <mxCell id="WJGu8_yT9mj12SgUYSVn-15" value="" style="edgeStyle=orthogonalEdgeStyle;html=1;verticalAlign=bottom;endArrow=open;endSize=8;strokeColor=#ff0000;rounded=0;" edge="1" source="WJGu8_yT9mj12SgUYSVn-14" parent="1">
          <mxGeometry relative="1" as="geometry">
            <mxPoint x="660" y="1510" as="targetPoint" />
          </mxGeometry>
        </mxCell>
        <mxCell id="WJGu8_yT9mj12SgUYSVn-16" value="Potwierdzenie decyzji" style="rounded=1;whiteSpace=wrap;html=1;arcSize=40;fontColor=#000000;fillColor=#ffffc0;strokeColor=#ff0000;" vertex="1" parent="1">
          <mxGeometry x="600" y="1510" width="120" height="40" as="geometry" />
        </mxCell>
        <mxCell id="WJGu8_yT9mj12SgUYSVn-17" value="" style="edgeStyle=orthogonalEdgeStyle;html=1;verticalAlign=bottom;endArrow=open;endSize=8;strokeColor=#ff0000;rounded=0;entryX=0.75;entryY=0.5;entryDx=0;entryDy=0;entryPerimeter=0;" edge="1" source="WJGu8_yT9mj12SgUYSVn-16" parent="1" target="WJGu8_yT9mj12SgUYSVn-18">
          <mxGeometry relative="1" as="geometry">
            <mxPoint x="660" y="1810" as="targetPoint" />
            <Array as="points">
              <mxPoint x="660" y="1840" />
              <mxPoint x="540" y="1840" />
            </Array>
          </mxGeometry>
        </mxCell>
        <mxCell id="WJGu8_yT9mj12SgUYSVn-18" value="" style="shape=line;html=1;strokeWidth=6;strokeColor=#ff0000;" vertex="1" parent="1">
          <mxGeometry x="390" y="1920" width="200" height="10" as="geometry" />
        </mxCell>
        <mxCell id="WJGu8_yT9mj12SgUYSVn-20" value="Wyświetlenie listy zadeklarowanych próśb." style="rounded=1;whiteSpace=wrap;html=1;arcSize=40;fontColor=#000000;fillColor=#ffffc0;strokeColor=#ff0000;" vertex="1" parent="1">
          <mxGeometry x="350" y="1550" width="130" height="50" as="geometry" />
        </mxCell>
        <mxCell id="WJGu8_yT9mj12SgUYSVn-21" value="" style="edgeStyle=orthogonalEdgeStyle;html=1;verticalAlign=bottom;endArrow=open;endSize=8;strokeColor=#ff0000;rounded=0;" edge="1" source="WJGu8_yT9mj12SgUYSVn-20" parent="1">
          <mxGeometry relative="1" as="geometry">
            <mxPoint x="415" y="1660" as="targetPoint" />
            <Array as="points">
              <mxPoint x="415" y="1650" />
            </Array>
          </mxGeometry>
        </mxCell>
        <mxCell id="WJGu8_yT9mj12SgUYSVn-22" value="Zaakceptowanie lub odrzucenie próśb." style="rounded=1;whiteSpace=wrap;html=1;arcSize=40;fontColor=#000000;fillColor=#ffffc0;strokeColor=#ff0000;" vertex="1" parent="1">
          <mxGeometry x="355" y="1660" width="120" height="40" as="geometry" />
        </mxCell>
        <mxCell id="WJGu8_yT9mj12SgUYSVn-23" value="" style="edgeStyle=orthogonalEdgeStyle;html=1;verticalAlign=bottom;endArrow=open;endSize=8;strokeColor=#ff0000;rounded=0;" edge="1" source="WJGu8_yT9mj12SgUYSVn-22" parent="1">
          <mxGeometry relative="1" as="geometry">
            <mxPoint x="415" y="1760" as="targetPoint" />
          </mxGeometry>
        </mxCell>
        <mxCell id="WJGu8_yT9mj12SgUYSVn-24" value="Wyświetlenie oraz potwierdzenie końcowego stanu dezycji." style="rounded=1;whiteSpace=wrap;html=1;arcSize=40;fontColor=#000000;fillColor=#ffffc0;strokeColor=#ff0000;" vertex="1" parent="1">
          <mxGeometry x="355" y="1760" width="120" height="80" as="geometry" />
        </mxCell>
        <mxCell id="WJGu8_yT9mj12SgUYSVn-25" value="" style="edgeStyle=orthogonalEdgeStyle;html=1;verticalAlign=bottom;endArrow=open;endSize=8;strokeColor=#ff0000;rounded=0;" edge="1" source="WJGu8_yT9mj12SgUYSVn-24" parent="1">
          <mxGeometry relative="1" as="geometry">
            <mxPoint x="415" y="1920" as="targetPoint" />
            <Array as="points">
              <mxPoint x="415" y="1910" />
            </Array>
          </mxGeometry>
        </mxCell>
        <mxCell id="WJGu8_yT9mj12SgUYSVn-27" value="" style="edgeStyle=orthogonalEdgeStyle;html=1;verticalAlign=bottom;endArrow=open;endSize=8;strokeColor=#ff0000;rounded=0;exitX=0.465;exitY=0.3;exitDx=0;exitDy=0;exitPerimeter=0;" edge="1" source="WJGu8_yT9mj12SgUYSVn-18" parent="1">
          <mxGeometry relative="1" as="geometry">
            <mxPoint x="480" y="2020" as="targetPoint" />
            <mxPoint x="480" y="1950" as="sourcePoint" />
            <Array as="points">
              <mxPoint x="480" y="1923" />
            </Array>
          </mxGeometry>
        </mxCell>
        <mxCell id="WJGu8_yT9mj12SgUYSVn-28" value="Wyświetlenie komunikatu o dokonanej operacji" style="rounded=1;whiteSpace=wrap;html=1;arcSize=40;fontColor=#000000;fillColor=#ffffc0;strokeColor=#ff0000;" vertex="1" parent="1">
          <mxGeometry x="420" y="2020" width="120" height="50" as="geometry" />
        </mxCell>
        <mxCell id="WJGu8_yT9mj12SgUYSVn-29" value="" style="edgeStyle=orthogonalEdgeStyle;html=1;verticalAlign=bottom;endArrow=open;endSize=8;strokeColor=#ff0000;rounded=0;" edge="1" source="WJGu8_yT9mj12SgUYSVn-28" parent="1">
          <mxGeometry relative="1" as="geometry">
            <mxPoint x="480" y="2120" as="targetPoint" />
          </mxGeometry>
        </mxCell>
        <mxCell id="WJGu8_yT9mj12SgUYSVn-30" value="Wysłanie decyzji do uchodźcy" style="rounded=1;whiteSpace=wrap;html=1;arcSize=40;fontColor=#000000;fillColor=#ffffc0;strokeColor=#ff0000;" vertex="1" parent="1">
          <mxGeometry x="420" y="2120" width="120" height="40" as="geometry" />
        </mxCell>
        <mxCell id="WJGu8_yT9mj12SgUYSVn-31" value="" style="edgeStyle=orthogonalEdgeStyle;html=1;verticalAlign=bottom;endArrow=open;endSize=8;strokeColor=#ff0000;rounded=0;" edge="1" source="WJGu8_yT9mj12SgUYSVn-30" parent="1">
          <mxGeometry relative="1" as="geometry">
            <mxPoint x="480" y="2220" as="targetPoint" />
          </mxGeometry>
        </mxCell>
        <mxCell id="WJGu8_yT9mj12SgUYSVn-32" value="" style="ellipse;html=1;shape=endState;fillColor=#000000;strokeColor=#ff0000;" vertex="1" parent="1">
          <mxGeometry x="465" y="2220" width="30" height="30" as="geometry" />
        </mxCell>
      </root>
    </mxGraphModel>
  </diagram>
</mxfile>
